<?xml version="1.0" encoding="UTF-8" standalone="no" ?>
<!DOCTYPE svg PUBLIC "-//W3C//DTD SVG 1.1//EN" "http://www.w3.org/Graphics/SVG/1.1/DTD/svg11.dtd">
<svg xmlns="http://www.w3.org/2000/svg" xmlns:xlink="http://www.w3.org/1999/xlink" version="1.1" width="1280" height="1024" viewBox="0 0 1280 1024" xml:space="preserve">
<desc>Created with Fabric.js 5.3.0</desc>
<defs>
</defs>
<g transform="matrix(1 0 0 1 640 512)" id="background-logo"  >
<rect style="stroke: none; stroke-width: 0; stroke-dasharray: none; stroke-linecap: butt; stroke-dashoffset: 0; stroke-linejoin: miter; stroke-miterlimit: 4; fill: rgb(255,255,255); fill-opacity: 0; fill-rule: nonzero; opacity: 1;"  paint-order="stroke"  x="-640" y="-512" rx="0" ry="0" width="1280" height="1024" />
</g>
<g transform="matrix(3.824212920235413 0 0 3.824212920235413 639.8870727075421 511.1869234943028)" id="logo-logo"  >
<g style=""  paint-order="stroke"   >
		<g transform="matrix(1.0395814610440999 0 0 1.0395814610440999 -6.919948149314052 9.772065733814571)"  >
<linearGradient id="SVGID_2_280038" gradientUnits="userSpaceOnUse" gradientTransform="matrix(1 0 0 1 0 0)"  x1="111.4381" y1="21.188" x2="170.8008" y2="200.3174">
<stop offset="0%" style="stop-color:rgb(251,223,91);stop-opacity: 1"/>
<stop offset="100%" style="stop-color:rgb(230,50,44);stop-opacity: 1"/>
</linearGradient>
<path style="stroke: none; stroke-width: 1; stroke-dasharray: none; stroke-linecap: butt; stroke-dashoffset: 0; stroke-linejoin: miter; stroke-miterlimit: 4; fill: url(#SVGID_2_280038); fill-rule: nonzero; opacity: 1;"  paint-order="stroke"  transform=" translate(-155.9935248620497, -140.05)" d="M 190.3 116.2 C 189.9 106.2 186.20000000000002 94.1 172.70000000000002 85 C 172.70000000000002 85 172.70000000000002 85 172.60000000000002 85 C 173.3 85.3 191.60000000000002 93.6 198.3 93.3 C 205.10000000000002 93 215.9 87.3 207 73.3 C 207 73.3 200.7 76.8 198.6 70.1 C 198.1 68.39999999999999 198.4 66.6 199.5 65.3 C 200.9 63.699999999999996 203.7 62.599999999999994 209.6 65.6 C 220.4 71 224 87.6 224 87.6 C 224 87.6 229.7 115.2 190.3 116.2 z M 114.6 111 C 125.6 94.4 143.29999999999998 104.4 143.29999999999998 104.4 C 155.99999999999997 116.2 151.49999999999997 132.6 148.6 139.60000000000002 C 151.9 137.20000000000002 154 136.90000000000003 159.6 134.90000000000003 C 164.9 133.00000000000003 171.2 131.70000000000005 178.4 131.70000000000005 C 180.20000000000002 131.70000000000005 181.9 131.80000000000004 183.70000000000002 131.90000000000003 C 187.00000000000003 118.10000000000004 188.20000000000002 99.00000000000003 166.8 86.70000000000003 C 145.10000000000002 74.20000000000003 121.80000000000001 85.60000000000004 121.80000000000001 85.60000000000004 C 121.80000000000001 85.60000000000004 113.10000000000001 89.40000000000003 107.80000000000001 98.00000000000004 C 105.60000000000001 101.40000000000005 104.00000000000001 105.60000000000004 103.70000000000002 110.60000000000004 C 102.9 122.6 114.6 111 114.6 111 z M 164.9 77.4 C 172.6 77.4 178.8 71.2 178.8 63.50000000000001 C 178.8 55.80000000000001 172.60000000000002 49.60000000000001 164.9 49.60000000000001 C 157.20000000000002 49.60000000000001 151 55.80000000000001 151 63.50000000000001 C 151 71.2 157.2 77.4 164.9 77.4 z M 194.4 138.5 C 168.3 131.5 151.8 142.9 145.5 148.5 C 143.6 150.2 143 152.9 143.9 155.2 C 148.8 167.1 161 164.1 175 163.2 C 190.4 162.29999999999998 192.5 172.7 192.5 172.7 C 198.8 202.5 180.5 230.5 180.5 230.5 C 194.5 221.9 204.4 198.2 204.4 198.2 C 204.4 198.2 228.2 147.6 194.4 138.5 z M 172.4 168.2 C 167.1 169.2 162.70000000000002 169.39999999999998 159.1 169 C 154.29999999999998 168.9 148.5 168 144.1 163.8 C 129.5 207.9 87.69999999999999 223.3 87.69999999999999 223.3 C 148.89999999999998 220.70000000000002 172.6 173.10000000000002 174.89999999999998 168.20000000000002 C 174.99999999999997 167.9 175.09999999999997 167.8 175.09999999999997 167.8 C 174.1 167.9 173.2 168 172.4 168.2 L 172.4 168.2 z" stroke-linecap="round" />
</g>
		<g transform="matrix(1.0395814610440999 0 0 1.0395814610440999 0 -2.937236958105558)"  >
<linearGradient id="SVGID_3_280039" gradientUnits="userSpaceOnUse" gradientTransform="matrix(1 0 0 1 0 0)"  x1="65.2011" y1="127.843" x2="259.8889" y2="127.843">
<stop offset="0%" style="stop-color:rgb(251,223,91);stop-opacity: 1"/>
<stop offset="100%" style="stop-color:rgb(230,50,44);stop-opacity: 1"/>
</linearGradient>
<path style="stroke: none; stroke-width: 1; stroke-dasharray: none; stroke-linecap: butt; stroke-dashoffset: 0; stroke-linejoin: miter; stroke-miterlimit: 4; fill: url(#SVGID_3_280039); fill-rule: nonzero; opacity: 1;"  paint-order="stroke"  transform=" translate(-162.64999999999998, -127.82459663511548)" d="M 181.8 212.9 C 182.5 212.9 183.20000000000002 212.8 184 212.8 C 182.3 217.3 180.5 221.10000000000002 179.2 223.70000000000002 C 172.6 224.9 152.6 227.4 132 216.9 C 135 215.4 137.8 213.9 140.5 212.20000000000002 C 143.9 210.10000000000002 147.1 207.8 150 205.60000000000002 C 158.2 209.9 168.9 213.4 181.8 212.9 z M 162.6 30.8 C 108.89999999999999 30.8 65.3 74.5 65.3 128.1 C 65.3 160.7 81.4 189.6 106.1 207.3 C 108.1 205.8 110.3 204.10000000000002 112.39999999999999 202.3 C 113.1 201.70000000000002 113.8 201.10000000000002 114.49999999999999 200.4 C 118.79999999999998 196.5 123.09999999999998 191.9 127.09999999999998 186.5 C 70.99999999999997 130.4 102.99999999999997 74.8 103.69999999999999 73.6 C 69.89999999999999 118.3 90.19999999999999 166.1 90.19999999999999 166.1 C 94.19999999999999 176.4 98.79999999999998 184.9 103.89999999999999 192 C 86.69999999999999 176.1 75.79999999999998 153.4 75.79999999999998 128.1 C 75.79999999999998 80.19999999999999 114.79999999999998 41.19999999999999 162.7 41.19999999999999 C 210.6 41.19999999999999 249.5 80.19999999999999 249.5 128.1 C 249.5 159.4 232.9 186.89999999999998 208 202.1 C 206.5 205.4 203.3 211.9 198.7 218.5 C 234.6 204.1 260 169 260 128.1 C 259.9 74.5 216.2 30.8 162.6 30.8 z" stroke-linecap="round" />
</g>
		<g transform="matrix(1.0395814610440999 0 0 1.0395814610440999 -31.40796170314576 -14.993289300841468)"  >
<linearGradient id="SVGID_4_280040" gradientUnits="userSpaceOnUse" gradientTransform="matrix(1 0 0 1 0 0)"  x1="103.6004" y1="116.2051" x2="161.1546" y2="116.2051">
<stop offset="0%" style="stop-color:rgb(251,223,91);stop-opacity: 1"/>
<stop offset="100%" style="stop-color:rgb(230,50,44);stop-opacity: 1"/>
</linearGradient>
<path style="stroke: none; stroke-width: 1; stroke-dasharray: none; stroke-linecap: butt; stroke-dashoffset: 0; stroke-linejoin: miter; stroke-miterlimit: 4; fill: url(#SVGID_4_280040); fill-rule: nonzero; opacity: 1;"  paint-order="stroke"  transform=" translate(-132.4378782182194, -116.22757149133555)" d="M 159.6 134.9 C 154 136.9 149.6 139.5 146.29999999999998 142 C 149.2 134.9 153.7 118.6 140.99999999999997 106.8 C 140.99999999999997 106.8 127.99999999999997 96.8 116.99999999999997 113.39999999999999 C 116.99999999999997 113.39999999999999 112.29999999999997 121.3 116.99999999999997 127.6 C 116.99999999999997 127.6 123.79999999999997 127.19999999999999 122.29999999999997 134.2 C 121.59999999999997 137.7 119.09999999999997 138.29999999999998 116.79999999999997 138 C 114.19999999999997 137.7 111.89999999999996 136.2 110.29999999999997 134.1 C 107.49999999999997 130.4 102.99999999999997 122.69999999999999 103.79999999999997 110.6 C 104.09999999999997 105.6 105.69999999999997 101.5 107.89999999999996 98 C 114.49999999999996 93.3 131.89999999999998 84.6 148.09999999999997 96.3 C 165.5 109 161 128 159.6 134.9 z" stroke-linecap="round" />
</g>
</g>
</g>
</svg>